<?xml version="1.0" encoding="UTF-8" standalone="no"?>
<!-- Created with Inkscape (http://www.inkscape.org/) -->

<svg
   width="64"
   height="64"
   viewBox="0 0 16.933331 16.933332"
   version="1.1"
   id="svg1"
   inkscape:version="1.3.2 (1:1.3.2+202311252150+091e20ef0f)"
   sodipodi:docname="collectible_legendary.svg"
   inkscape:export-filename="collectible_legendary.png"
   inkscape:export-xdpi="96"
   inkscape:export-ydpi="96"
   xmlns:inkscape="http://www.inkscape.org/namespaces/inkscape"
   xmlns:sodipodi="http://sodipodi.sourceforge.net/DTD/sodipodi-0.dtd"
   xmlns="http://www.w3.org/2000/svg"
   xmlns:svg="http://www.w3.org/2000/svg">
  <sodipodi:namedview
     id="namedview1"
     pagecolor="#505050"
     bordercolor="#ffffff"
     borderopacity="1"
     inkscape:showpageshadow="0"
     inkscape:pageopacity="0"
     inkscape:pagecheckerboard="1"
     inkscape:deskcolor="#505050"
     inkscape:document-units="px"
     inkscape:zoom="8.2243423"
     inkscape:cx="31.431085"
     inkscape:cy="30.640748"
     inkscape:window-width="1858"
     inkscape:window-height="1016"
     inkscape:window-x="0"
     inkscape:window-y="0"
     inkscape:window-maximized="1"
     inkscape:current-layer="layer1" />
  <defs
     id="defs1" />
  <g
     inkscape:label="Layer 1"
     inkscape:groupmode="layer"
     id="layer1">
    <path
       id="rect2"
       style="fill:#e6904e;fill-opacity:1;stroke:#000000;stroke-width:2.05676;stroke-linecap:round;stroke-linejoin:bevel;stroke-dasharray:none;paint-order:markers fill stroke"
       d="m 7.0582335,1.028374 h 2.8168587 c 0.4114258,0 0.7125568,0.3079658 0.7426468,0.688217 l 1.068269,13.50015 c 0.03009,0.380251 -1.39949,0.688216 -1.8109158,0.688216 H 7.0582335 c -0.4114261,0 -1.8419805,-0.295655 -1.810917,-0.688216 L 6.3155871,1.716591 C 6.3456766,1.3363398 6.6468074,1.028374 7.0582335,1.028374 Z"
       sodipodi:nodetypes="sssssssss" />
    <path
       style="fill:#fbb954;fill-opacity:1;stroke:#000000;stroke-width:2.05225;stroke-linecap:round;stroke-linejoin:round;stroke-dasharray:none;paint-order:markers fill stroke"
       id="path1"
       sodipodi:type="arc"
       sodipodi:cx="8.4666681"
       sodipodi:cy="1.026125"
       sodipodi:rx="7.4405265"
       sodipodi:ry="7.5640502"
       sodipodi:start="0"
       sodipodi:end="3.1415927"
       sodipodi:arc-type="slice"
       d="m 15.907195,1.026125 a 7.4405265,7.5640502 0 0 1 -3.720264,6.5506596 7.4405265,7.5640502 0 0 1 -7.4405263,-1e-7 A 7.4405265,7.5640502 0 0 1 1.0261416,1.026125 h 7.4405265 z" />
    <path
       style="fill:#fbb954;fill-opacity:1;stroke:#000000;stroke-width:2.11667;stroke-linecap:round;stroke-linejoin:round;stroke-dasharray:none;paint-order:markers fill stroke"
       id="path1-5"
       sodipodi:type="arc"
       sodipodi:cx="8.4666662"
       sodipodi:cy="-15.801353"
       sodipodi:rx="4.9893913"
       sodipodi:ry="4.6866074"
       sodipodi:start="0"
       sodipodi:end="3.1415927"
       sodipodi:arc-type="slice"
       d="m 13.456058,-15.801353 a 4.9893913,4.6866074 0 0 1 -2.494696,4.058721 4.9893913,4.6866074 0 0 1 -4.9893916,0 4.9893913,4.6866074 0 0 1 -2.4946955,-4.058721 h 4.9893913 z"
       transform="scale(1,-1)" />
    <path
       style="fill:#f9c22b;fill-opacity:0;stroke:#ffffff;stroke-width:2.11667;stroke-linecap:round;stroke-linejoin:round;stroke-dasharray:none"
       d="M 12.732192,3.6719579 H 8.8127429"
       id="path2" />
  </g>
</svg>
