<?xml version="1.0" encoding="UTF-8" standalone="no"?>
<!-- Created with Inkscape (http://www.inkscape.org/) -->

<svg
   width="75"
   height="56"
   viewBox="0 0 19.843751 14.816667"
   version="1.1"
   id="svg1"
   inkscape:version="1.3.2 (1:1.3.2+202311252150+091e20ef0f)"
   sodipodi:docname="player_sprite.svg"
   inkscape:export-filename="player_sprite.png"
   inkscape:export-xdpi="96.050621"
   inkscape:export-ydpi="96.050621"
   xmlns:inkscape="http://www.inkscape.org/namespaces/inkscape"
   xmlns:sodipodi="http://sodipodi.sourceforge.net/DTD/sodipodi-0.dtd"
   xmlns="http://www.w3.org/2000/svg"
   xmlns:svg="http://www.w3.org/2000/svg">
  <sodipodi:namedview
     id="namedview1"
     pagecolor="#505050"
     bordercolor="#eeeeee"
     borderopacity="1"
     inkscape:showpageshadow="0"
     inkscape:pageopacity="0"
     inkscape:pagecheckerboard="0"
     inkscape:deskcolor="#505050"
     inkscape:document-units="px"
     inkscape:zoom="8.2243423"
     inkscape:cx="43.711702"
     inkscape:cy="23.466922"
     inkscape:window-width="1858"
     inkscape:window-height="1016"
     inkscape:window-x="0"
     inkscape:window-y="0"
     inkscape:window-maximized="1"
     inkscape:current-layer="layer1" />
  <defs
     id="defs1">
    <inkscape:path-effect
       effect="bspline"
       id="path-effect57"
       is_visible="true"
       lpeversion="1.3"
       weight="33.333333"
       steps="2"
       helper_size="0"
       apply_no_weight="true"
       apply_with_weight="true"
       only_selected="false"
       uniform="false" />
    <inkscape:path-effect
       effect="spiro"
       id="path-effect53"
       is_visible="true"
       lpeversion="1" />
    <inkscape:path-effect
       effect="fillet_chamfer"
       id="path-effect52"
       is_visible="true"
       lpeversion="1"
       nodesatellites_param="F,0,0,1,0,0,0,1 @ F,0,0,1,0,0,0,1"
       radius="0"
       unit="px"
       method="auto"
       mode="F"
       chamfer_steps="1"
       flexible="false"
       use_knot_distance="true"
       apply_no_radius="true"
       apply_with_radius="true"
       only_selected="false"
       hide_knots="false" />
    <linearGradient
       id="swatch2"
       inkscape:swatch="solid">
      <stop
         style="stop-color:#000000;stop-opacity:1;"
         offset="0"
         id="stop2" />
    </linearGradient>
  </defs>
  <g
     inkscape:label="Layer 1"
     inkscape:groupmode="layer"
     id="layer1">
    <path
       sodipodi:type="star"
       style="fill:#9babb2;fill-opacity:1;stroke:#000000;stroke-width:4.07216;stroke-linecap:round;stroke-linejoin:round;stroke-dasharray:none;stroke-opacity:1;paint-order:stroke markers fill"
       id="path2"
       inkscape:flatsided="false"
       sodipodi:sides="2"
       sodipodi:cx="0"
       sodipodi:cy="0"
       sodipodi:r1="0.96231812"
       sodipodi:r2="4.8115907"
       sodipodi:arg1="1.5707963"
       sodipodi:arg2="3.1415926"
       inkscape:rounded="0.5"
       inkscape:randomized="0"
       d="M 2.5785215e-8,0.96231812 C -2.4534394,0.96231825 -4.8115906,2.4534397 -4.8115907,2.5785215e-7 -4.8115907,-2.4534392 -2.4534395,-0.96231799 -2.5785215e-8,-0.96231812 2.4534394,-0.96231825 4.8115906,-2.4534397 4.8115907,-2.5785215e-7 4.8115907,2.4534392 2.4534395,0.96231799 2.5785215e-8,0.96231812 Z"
       inkscape:transform-center-x="-0.078618077"
       inkscape:transform-center-y="-0.051218939"
       transform="matrix(0,-0.49067701,0.55062914,0,1.9000686,10.227455)" />
    <path
       style="fill:#e83b3b;fill-opacity:1;stroke:#000000;stroke-width:2.11667;stroke-linejoin:miter;stroke-miterlimit:4;stroke-dasharray:none;paint-order:stroke fill markers"
       id="path3"
       sodipodi:type="arc"
       sodipodi:cx="11.940529"
       sodipodi:cy="-5.413465"
       sodipodi:rx="1.7099332"
       sodipodi:ry="1.7099333"
       sodipodi:start="0"
       sodipodi:end="3.1415927"
       sodipodi:arc-type="slice"
       d="m 13.650462,-5.413465 a 1.7099332,1.7099333 0 0 1 -0.854967,1.4808457 1.7099332,1.7099333 0 0 1 -1.709933,-1e-7 1.7099332,1.7099333 0 0 1 -0.854966,-1.4808456 h 1.709933 z"
       transform="scale(1,-1)" />
    <path
       style="fill:#e83b3b;fill-opacity:0;stroke:#000000;stroke-width:2.11667;stroke-linecap:round;stroke-linejoin:round;stroke-miterlimit:4;stroke-dasharray:none;paint-order:stroke fill markers"
       d="M 11.932043,2.5373049 11.913563,1.058335 h 2.304396"
       id="path4"
       sodipodi:nodetypes="ccc" />
    <path
       id="rect1"
       style="fill:#e83b3b;fill-opacity:1;stroke:#000000;stroke-width:2.1599;stroke-linecap:round;stroke-linejoin:round;stroke-dasharray:none;paint-order:stroke fill markers"
       d="m 15.003653,6.3221787 a 3.6961875,3.7021086 0 0 0 -0.316776,0.02274 c -0.02143,-0.0016 -0.04274,-0.0031 -0.0646,-0.0031 H 8.9435524 c -0.03691,0 -0.07289,0.0032 -0.108521,0.0078 a 3.6915975,3.6975114 0 0 0 -0.227376,-0.0078 3.6915975,3.6975114 0 0 0 -3.691247,3.6974483 3.6915975,3.6975114 0 0 0 3.691247,3.69745 3.6915975,3.6975114 0 0 0 0.417546,-0.02997 h 5.5970756 c 0.02185,0 0.04317,-0.0015 0.0646,-0.0031 a 3.6961875,3.7021086 0 0 0 0.316776,0.02274 3.6961875,3.7021086 0 0 0 3.696415,-3.702101 3.6961875,3.7021086 0 0 0 -3.696415,-3.7020993 z" />
    <g
       id="g6"
       transform="translate(-5.3897439,1.5627864)">
      <ellipse
         style="fill:#8fd3ff;fill-opacity:1;stroke:#000000;stroke-width:2.11667;stroke-linecap:round;stroke-linejoin:round;stroke-miterlimit:4;stroke-dasharray:none;paint-order:stroke fill markers"
         id="path5"
         cx="20.108334"
         cy="8.4666653"
         rx="1.6037194"
         ry="1.6037202" />
      <ellipse
         style="fill:#8fd3ff;fill-opacity:1;stroke:#000000;stroke-width:2.11667;stroke-linecap:round;stroke-linejoin:round;stroke-miterlimit:4;stroke-dasharray:none;paint-order:stroke fill markers"
         id="path5-6"
         cx="14.287498"
         cy="8.4666653"
         rx="1.6037194"
         ry="1.6037202" />
    </g>
  </g>
</svg>
